<svg width="1615" height="324" viewBox="0 0 1615 324" fill="none" xmlns="http://www.w3.org/2000/svg">
<path d="M16 308V161V16H174.5C228 16 280.4 48.4 280 108C279.6 167.6 227.5 195 174.5 195H55.5M338.5 308V127H452.5M562.5 127L473.5 216.5L562.5 306H588L666.5 69.5M867.5 16V161V306H801C746.5 306 702 278.1 702 216.5C702 154.9 747.5 127 798.5 127H823M969 127V308M1045 127L1135 307L1225 127M1289 127L1379 217L1289 307M1419 127L1509 217M1599 307L1509 217M1599 127L1509 217M1419 307L1509 217M969 69.5V70.5M1289 69.5V70.5" stroke="currentColor" stroke-width="32" stroke-linecap="round" stroke-linejoin="round"/>
</svg>
