<svg width="450" height="450" viewBox="-2 -2 454 454" fill="none" xmlns="http://www.w3.org/2000/svg">
<path transform="translate(0 22)" d="M422.687 198.19C428.935 191.942 439.065 191.942 445.314 198.19C451.562 204.439 451.562 214.569 445.314 220.817L366.627 299.504L445.314 378.19C451.562 384.439 451.562 394.569 445.314 400.817C439.065 407.066 428.935 407.066 422.687 400.817L344 322.131L265.314 400.817C259.065 407.066 248.935 407.066 242.687 400.817C236.438 394.569 236.438 384.439 242.687 378.19L321.373 299.504L242.687 220.817C236.438 214.569 236.438 204.439 242.687 198.19C248.935 191.942 259.065 191.942 265.314 198.19L344 276.877L422.687 198.19ZM228.693 11.3456C231.266 2.89215 240.205 -1.87509 248.658 0.697205C257.112 3.26982 261.879 12.2084 259.307 20.662L145.807 393.662C143.756 400.399 137.542 405.004 130.5 405.004H105C100.741 405.004 96.6574 403.306 93.6544 400.286L4.65436 310.786C-1.53937 304.557 -1.55307 294.5 4.62311 288.254L93.6231 198.254C99.8364 191.971 109.967 191.914 116.25 198.127C122.533 204.34 122.59 214.471 116.377 220.754L38.5333 299.472L111.654 373.004H118.645L228.693 11.3456ZM344 133.504C352.837 133.504 360 140.667 360 149.504V150.504C360 159.34 352.837 166.504 344 166.504C335.164 166.504 328 159.34 328 150.504V149.504C328 140.667 335.164 133.504 344 133.504ZM105 132.504C113.837 132.504 121 139.667 121 148.504V149.504C121 158.34 113.837 165.504 105 165.504C96.1636 165.504 89.0001 158.34 89.0001 149.504V148.504C89.0001 139.667 96.1636 132.504 105 132.504Z" fill="currentColor"/>
</svg>
